<?xml version="1.0" encoding="UTF-8" standalone="no"?>
<!-- Created with Inkscape (http://www.inkscape.org/) -->

<svg
   xmlns:dc="http://purl.org/dc/elements/1.1/"
   xmlns:cc="http://creativecommons.org/ns#"
   xmlns:rdf="http://www.w3.org/1999/02/22-rdf-syntax-ns#"
   xmlns:svg="http://www.w3.org/2000/svg"
   xmlns="http://www.w3.org/2000/svg"
   version="1.1"
   width="800"
   height="600"
   id="svg3068">
  <defs
     id="defs3070" />
  <metadata
     id="metadata3073">
    <rdf:RDF>
      <cc:Work
         rdf:about="">
        <dc:format>image/svg+xml</dc:format>
        <dc:type
           rdf:resource="http://purl.org/dc/dcmitype/StillImage" />
        <dc:title></dc:title>
      </cc:Work>
    </rdf:RDF>
  </metadata>
  <g
     id="layer1">
    <g
       transform="translate(63.93355,-8.3480433)"
       id="g3786">
      <g
         id="g3772">
        <path
           d="m 120,0.88754272 c 0,0 73.54952,28.20739628 84.28025,61.23318928 10.73073,33.025793 -32.19219,281.934518 -32.19219,281.934518 l -104.176122,0 c 0,0 -42.92292,-248.908731 -32.192188,-281.934523 C 46.450482,29.094935 120,0.88754272 120,0.88754272 z"
           transform="translate(217.14286,125.71429)"
           id="path2985"
           style="fill:#ffffff;fill-opacity:1;stroke:#000000;stroke-width:21.25984192;stroke-linecap:round;stroke-linejoin:round;stroke-miterlimit:4;stroke-opacity:1;stroke-dasharray:none" />
        <path
           d="m 272.62794,404.36218 -69.17425,82.39875 81.38147,0 z"
           id="path3766"
           style="fill:none;stroke:#000000;stroke-width:21.25984192;stroke-linecap:round;stroke-linejoin:round;stroke-miterlimit:4;stroke-opacity:1;stroke-dasharray:none" />
        <path
           d="m 402.8383,404.36218 69.17425,82.39875 -81.38147,0 z"
           id="path3768"
           style="fill:none;stroke:#000000;stroke-width:21.25984192;stroke-linecap:round;stroke-linejoin:round;stroke-miterlimit:4;stroke-opacity:1;stroke-dasharray:none" />
      </g>
      <path
         d="m 373.33752,249.73738 a 34.078491,53.915226 0 1 1 -68.15698,0 34.078491,53.915226 0 1 1 68.15698,0 z"
         transform="translate(-1.5259132,0)"
         id="path3770"
         style="fill:#ffffff;fill-opacity:1;stroke:#000000;stroke-width:21.25984192;stroke-linecap:round;stroke-linejoin:round;stroke-miterlimit:4;stroke-opacity:1;stroke-dasharray:none" />
      <rect
         width="127.15855"
         height="68.156982"
         x="275.67975"
         y="403.34491"
         id="rect3777"
         style="fill:#ffffff;fill-opacity:1;stroke:#000000;stroke-width:21.25984192;stroke-linecap:round;stroke-linejoin:round;stroke-miterlimit:4;stroke-opacity:1;stroke-dasharray:none" />
      <path
         d="m 318.66738,390.11725 38.13149,0 8.60293,98.63203 -55.33735,0 z"
         id="rect3779"
         style="fill:#ffffff;fill-opacity:1;stroke:#000000;stroke-width:16.87136078;stroke-linecap:round;stroke-linejoin:round;stroke-miterlimit:4;stroke-opacity:1" />
    </g>
  </g>
</svg>
